<svg width="246" height="53" viewBox="0 0 246 53" fill="none" xmlns="http://www.w3.org/2000/svg">
<path d="M83.9929 26.6126C83.9929 28.0382 83.7677 29.3619 83.3172 30.5838C82.8668 31.8057 82.2233 32.8579 81.4028 33.7574C80.5823 34.6569 79.601 35.3357 78.4427 35.8448C77.2844 36.354 76.0135 36.5916 74.6139 36.5916C73.2142 36.5916 71.9433 36.337 70.785 35.8448C69.6267 35.3527 68.6454 34.6569 67.8088 33.7574C66.9884 32.8579 66.3449 31.8057 65.8944 30.5838C65.444 29.3619 65.2188 28.0382 65.2188 26.6126C65.2188 25.187 65.444 23.8633 65.8944 22.6414C66.3449 21.4195 66.9884 20.3673 67.8088 19.4678C68.6293 18.5683 69.6267 17.8895 70.785 17.3804C71.9433 16.8712 73.2142 16.6336 74.6139 16.6336C76.0135 16.6336 77.2844 16.8882 78.4427 17.3973C79.601 17.9065 80.5823 18.6023 81.4028 19.4848C82.2233 20.3673 82.8507 21.4195 83.3172 22.6414C83.7677 23.8633 83.9929 25.187 83.9929 26.6126ZM80.4536 26.6126C80.4536 25.5434 80.3249 24.5761 80.0515 23.7275C79.778 22.879 79.3919 22.1492 78.8931 21.5552C78.3944 20.9613 77.7831 20.503 77.0592 20.1976C76.3352 19.8751 75.5309 19.7224 74.6139 19.7224C73.713 19.7224 72.8925 19.8751 72.1686 20.1976C71.4446 20.52 70.8333 20.9613 70.3185 21.5552C69.8037 22.1492 69.4176 22.879 69.1441 23.7275C68.8706 24.5761 68.7419 25.5434 68.7419 26.6126C68.7419 27.6818 68.8706 28.6491 69.1441 29.4977C69.4176 30.3462 69.8037 31.076 70.3185 31.653C70.8333 32.247 71.4446 32.6882 72.1686 33.0107C72.8925 33.3331 73.713 33.4859 74.6139 33.4859C75.5148 33.4859 76.3352 33.3331 77.0592 33.0107C77.7831 32.6882 78.3944 32.247 78.8931 31.653C79.3919 31.059 79.778 30.3462 80.0515 29.4977C80.3249 28.6491 80.4536 27.6818 80.4536 26.6126Z" fill="black"/>
<path d="M103.33 16.6141V19.5841H94.9162V25.507H102.011V28.4769H94.9162V36.623H91.3608V16.6141H103.33Z" fill="black"/>
<path d="M122.635 16.6326V19.5855H114.237V25.5084H121.332V28.4784H114.237V36.6245H110.682V16.6326H122.635Z" fill="black"/>
<path d="M141.94 16.6326V19.5855H133.543V25.1181H140.155V27.9692H133.543V33.6206H141.94V36.5905H130.003V16.6326H141.94Z" fill="black"/>
<path d="M152.832 28.8008V36.6075H149.309V16.6326H155.084C156.371 16.6326 157.481 16.7683 158.398 17.0568C159.315 17.3454 160.071 17.7357 160.666 18.2448C161.262 18.7539 161.696 19.3649 161.969 20.0607C162.243 20.7735 162.388 21.5372 162.388 22.3858C162.388 23.0646 162.291 23.6925 162.098 24.2865C161.905 24.8805 161.632 25.4236 161.278 25.9157C160.924 26.4079 160.489 26.8322 159.975 27.2055C159.46 27.5789 158.865 27.8674 158.205 28.088C158.655 28.3596 159.042 28.7329 159.363 29.2421L164.109 36.6245H160.94C160.634 36.6245 160.377 36.5566 160.168 36.4378C159.959 36.302 159.766 36.1323 159.621 35.8777L155.647 29.4796C155.502 29.2421 155.341 29.0723 155.148 28.9705C154.971 28.8687 154.698 28.8178 154.36 28.8178H152.832V28.8008ZM152.832 26.1364H155.036C155.695 26.1364 156.275 26.0515 156.773 25.8818C157.272 25.7121 157.674 25.4575 157.996 25.152C158.318 24.8466 158.559 24.4732 158.704 24.0489C158.865 23.6246 158.945 23.1664 158.945 22.6573C158.945 21.639 158.623 20.8584 157.996 20.3153C157.368 19.7722 156.403 19.5007 155.1 19.5007H152.848V26.1364H152.832Z" fill="black"/>
<path d="M168.678 16.6311H171.638C171.944 16.6311 172.201 16.699 172.41 16.8517C172.619 17.0045 172.748 17.2081 172.828 17.4627L176.046 29.4103C176.126 29.6988 176.191 30.0212 176.255 30.3776C176.319 30.7171 176.384 31.0904 176.448 31.4808C176.512 31.0904 176.593 30.734 176.673 30.3776C176.754 30.0382 176.85 29.7158 176.947 29.4103L180.663 17.4627C180.727 17.259 180.872 17.0554 181.081 16.8857C181.29 16.716 181.532 16.6311 181.837 16.6311H182.867C183.173 16.6311 183.43 16.699 183.623 16.8517C183.816 17.0045 183.961 17.2081 184.041 17.4627L187.741 29.4103C187.934 30.0043 188.095 30.6492 188.24 31.3789C188.304 31.0225 188.369 30.6661 188.433 30.3437C188.498 30.0043 188.562 29.6988 188.642 29.4103L191.86 17.4627C191.924 17.2251 192.053 17.0384 192.262 16.8687C192.471 16.699 192.729 16.6141 193.018 16.6141H195.785L189.897 36.589H186.712L182.577 22.9443C182.529 22.7746 182.465 22.5879 182.416 22.3843C182.352 22.1806 182.304 21.96 182.256 21.7394C182.207 21.977 182.143 22.1806 182.095 22.3843C182.03 22.5879 181.982 22.7746 181.934 22.9443L177.751 36.589H174.55L168.678 16.6311Z" fill="black"/>
<path d="M207.03 36.623H203.491V16.6141H207.03V36.623Z" fill="black"/>
<path d="M225.322 20.433C225.226 20.6366 225.129 20.7724 225.001 20.8572C224.888 20.9421 224.743 20.976 224.566 20.976C224.405 20.976 224.212 20.9082 224.003 20.7724C223.794 20.6366 223.553 20.4839 223.279 20.3142C223.006 20.1445 222.668 19.9917 222.298 19.856C221.928 19.7202 221.477 19.6523 220.963 19.6523C220.496 19.6523 220.094 19.7202 219.756 19.839C219.418 19.9578 219.129 20.1275 218.887 20.3481C218.646 20.5687 218.485 20.8233 218.356 21.1288C218.244 21.4343 218.179 21.7567 218.179 22.1131C218.179 22.5713 218.292 22.9617 218.533 23.2671C218.775 23.5726 219.08 23.8272 219.466 24.0478C219.853 24.2684 220.287 24.4551 220.786 24.6248C221.284 24.7945 221.783 24.9812 222.298 25.1679C222.813 25.3546 223.311 25.5922 223.81 25.8467C224.309 26.1013 224.743 26.4237 225.129 26.8141C225.515 27.2044 225.821 27.6796 226.062 28.2566C226.304 28.8167 226.416 29.5125 226.416 30.3271C226.416 31.2096 226.271 32.0412 225.998 32.8048C225.724 33.5685 225.322 34.2474 224.791 34.8074C224.261 35.3844 223.617 35.8257 222.845 36.1651C222.073 36.4876 221.204 36.6573 220.206 36.6573C219.643 36.6573 219.08 36.5894 218.533 36.4706C217.986 36.3518 217.455 36.1821 216.941 35.9445C216.426 35.7239 215.959 35.4523 215.525 35.1299C215.091 34.8074 214.688 34.468 214.351 34.0777L215.316 32.3297C215.412 32.2109 215.509 32.0921 215.638 32.0072C215.766 31.9224 215.911 31.8714 216.072 31.8714C216.281 31.8714 216.506 31.9563 216.732 32.143C216.973 32.3297 217.246 32.5333 217.584 32.7539C217.906 32.9746 218.292 33.1782 218.726 33.3649C219.161 33.5516 219.692 33.6364 220.319 33.6364C221.268 33.6364 221.992 33.3988 222.523 32.9067C223.038 32.4145 223.295 31.7187 223.295 30.8023C223.295 30.2931 223.183 29.8689 222.941 29.5464C222.7 29.224 222.394 28.9524 222.008 28.7318C221.622 28.5112 221.188 28.3245 220.689 28.1718C220.19 28.019 219.692 27.8493 219.177 27.6796C218.662 27.4929 218.163 27.2893 217.665 27.0347C217.166 26.7801 216.732 26.4577 216.345 26.0504C215.959 25.6431 215.654 25.1339 215.412 24.54C215.171 23.929 215.058 23.1823 215.058 22.2998C215.058 21.587 215.187 20.8912 215.445 20.2293C215.702 19.5505 216.088 18.9565 216.587 18.4304C217.085 17.9043 217.697 17.497 218.421 17.1745C219.145 16.8521 219.981 16.6993 220.898 16.6993C221.96 16.6993 222.925 16.886 223.81 17.2424C224.695 17.5988 225.451 18.1079 226.078 18.7528L225.322 20.433Z" fill="black"/>
<path d="M245.704 16.6141V19.5671H237.307V25.1166H243.919V27.9847H237.307V33.6361H245.704V36.606H233.751V16.6141H245.704Z" fill="black"/>
<path d="M42.8574 12.1427C42.7448 11.8049 42.6161 11.4671 42.4392 11.1453C42.4231 11.1292 42.4231 11.0971 42.407 11.081C42.1174 10.5501 41.7474 10.0835 41.2648 9.71353C40.4604 9.1022 39.4469 8.82872 38.4495 8.82872C37.452 8.81263 36.4546 9.00568 35.4894 9.27917C34.5241 9.56874 33.591 9.93876 32.6901 10.3731L32.7062 10.357C32.6901 10.3731 32.6419 10.3731 32.6097 10.3731C32.5614 10.3731 32.5293 10.3409 32.5132 10.3249L32.4971 10.3088L32.4649 10.2766L32.3845 10.2122L32.2236 10.0835L31.9018 9.82614C31.6766 9.66527 31.4514 9.52048 31.2262 9.3596C30.7596 9.07003 30.277 8.81263 29.7622 8.60349C28.7487 8.18522 27.6708 7.9439 26.5769 8.00825C25.499 8.0726 24.4694 8.4587 23.5846 9.07003C22.6998 9.68136 21.9598 10.4857 21.3163 11.3866C20.4797 12.9149 19.7719 14.5076 19.3536 16.1807C18.9353 17.8538 18.8549 19.6074 19.241 21.2644C19.611 22.9214 20.4314 24.4658 21.4128 25.8815C22.3941 27.3133 23.5524 28.6485 24.6303 30.0803C25.7081 31.5121 26.7377 33.0565 27.333 34.8261C27.6226 35.711 27.8156 36.644 27.8639 37.5932C27.9121 38.5424 27.8156 39.4754 27.6226 40.3924C27.2365 42.2264 26.4803 43.9156 25.5794 45.4922C24.8716 46.7148 24.0833 47.8892 23.2468 48.9992C23.0054 49.321 22.7641 49.6427 22.5067 49.9484L21.2841 48.9671C21.3323 48.9188 21.3806 48.8544 21.4289 48.8062C22.4906 47.5192 23.472 46.1678 24.3246 44.7682C25.2094 43.3043 25.9495 41.7438 26.3195 40.1028C26.7056 38.478 26.6895 36.7888 26.1747 35.1962C25.6921 33.5874 24.7751 32.1234 23.7455 30.7077C22.7159 29.292 21.5897 27.9085 20.6084 26.4124C19.6271 24.9162 18.7744 23.2431 18.4205 21.4413C18.0505 19.6395 18.1792 17.7573 18.6618 16.0198C19.1444 14.2663 19.9166 12.6415 20.8175 11.081V11.0649L20.8336 11.0488C21.5093 10.1318 22.3298 9.29525 23.295 8.66784C24.2603 8.02434 25.4025 7.63824 26.5608 7.58998C27.7191 7.54172 28.8613 7.83129 29.907 8.29783C30.4218 8.52305 30.9205 8.79654 31.4031 9.11829C31.6444 9.27917 31.8697 9.44004 32.0949 9.61701C32.2075 9.69744 32.3201 9.79397 32.4327 9.89049L32.5936 10.0353L32.658 10.0675L32.674 10.0835C33.5749 9.68136 34.508 9.34352 35.4572 9.08612C36.4385 8.82872 37.452 8.65175 38.4816 8.70002C39.4951 8.73219 40.5247 9.02177 41.3291 9.66527C41.7474 9.98702 42.0852 10.4053 42.3426 10.8718C42.5679 11.274 42.7448 11.7084 42.8574 12.1427Z" fill="black"/>
<path d="M42.857 12.1428C42.857 12.1267 42.857 12.1267 42.8409 12.1106C42.8409 12.1106 42.8409 12.0945 42.8248 12.0784C42.8248 12.0623 42.8087 12.0302 42.7926 11.998C42.7605 11.9175 42.7444 11.8371 42.7122 11.7567C42.6318 11.5475 42.5513 11.3384 42.4387 11.1293C42.4226 11.1132 42.4226 11.081 42.4065 11.0649C42.3583 10.9684 42.3261 10.8879 42.2778 10.7914C42.2939 10.8075 42.31 10.8236 42.3261 10.8397C42.5674 11.274 42.7444 11.7084 42.857 12.1428Z" fill="black"/>
<path d="M30.1158 3.26235C29.7136 3.23018 29.3275 3.21409 28.9092 3.21409C20.8333 3.21409 14.2696 8.94125 14.2696 15.9876C14.2696 16.3415 14.2857 16.6954 14.3339 17.0494C14.3339 17.0976 14.3339 17.1298 14.35 17.1781V17.1941C14.3661 17.3389 14.3822 17.4998 14.4144 17.6446C14.5592 18.9316 14.6074 21.94 12.4356 24.5622C12.4356 24.5622 12.4356 24.5622 12.4356 24.5783C12.2586 24.7714 12.0656 24.9805 11.8886 25.1896C9.68464 27.6671 7.01412 31.4316 5.42145 36.4187C3.50704 33.1369 2.41309 29.292 2.41309 25.2057C2.41309 12.754 12.5 2.66711 24.9517 2.66711C26.7213 2.66711 28.4588 2.87625 30.1158 3.26235Z" fill="black"/>
<path d="M41.0393 6.0938C39.4144 4.72636 37.6287 3.58414 35.7465 2.69933L35.6017 2.61889H35.5856C32.2716 1.04232 28.7001 0.254028 25 0.254028C11.213 0.254028 0 11.467 0 25.254C0 29.8229 1.23874 34.2791 3.58752 38.1562C7.7381 45.0256 14.9614 49.4979 22.9247 50.1575C23.5843 50.2219 24.26 50.254 25 50.254C30.5019 50.254 35.7143 48.5005 40.0901 45.1865L40.3314 45.0095C46.4768 40.2315 50 33.0565 50 25.2701C49.9839 17.8377 46.7182 10.8557 41.0393 6.0938ZM39.3662 44.2373L39.2053 44.366C35.0708 47.4387 30.148 49.0796 24.9839 49.0796C24.3726 49.0796 23.8095 49.0636 23.2465 49.0153C23.166 49.0153 23.0856 48.9992 23.0051 48.9992C22.4743 48.9509 21.9595 48.9027 21.4286 48.8222C14.4627 47.7766 8.2529 43.6581 4.56885 37.5771C2.33269 33.8769 1.1583 29.6298 1.1583 25.2862C1.17439 12.1105 11.8565 1.42842 25 1.42842C28.5714 1.42842 32.0142 2.20062 35.2156 3.72893L35.3282 3.79328C37.0978 4.64592 38.7709 5.72378 40.2831 6.9947C45.7046 11.5314 48.8095 18.1916 48.8095 25.254C48.8095 32.7669 45.3668 39.6845 39.3662 44.2373Z" fill="black"/>
<path d="M47.4902 25.2058C47.4902 32.1556 44.337 38.3815 39.3821 42.516C42.0687 34.2631 38.6903 28.4233 37.6124 26.8628C37.1137 27.1524 36.5989 27.4098 36.0841 27.635C35.4084 27.9407 34.7328 28.2142 34.0249 28.4555C33.3332 28.6968 32.6092 28.8737 31.9014 29.0346C32.5931 28.8094 33.2849 28.5681 33.9606 28.2624C34.6362 27.9728 35.2797 27.635 35.9072 27.2811C36.5346 26.9272 37.1459 26.525 37.725 26.1067C37.8055 26.0423 37.8859 25.978 37.9824 25.9136C40.9265 23.4522 43.5487 19.5912 43.5487 15.9876C43.5487 14.6685 43.3235 13.3975 42.8891 12.191C42.8891 12.191 42.8891 12.191 42.8891 12.1749C42.8891 12.1749 42.8891 12.1749 42.8891 12.1588V12.1427C42.8891 12.1266 42.8891 12.1266 42.8731 12.1105C42.7444 11.6762 42.5835 11.2418 42.3422 10.8396C45.5597 14.765 47.4902 19.7682 47.4902 25.2058Z" fill="black"/>
<path d="M14.3502 17.1955C14.334 17.0982 14.3179 17.0496 14.3179 17.0334L14.334 17.0658C14.334 17.0982 14.334 17.1468 14.3502 17.1955Z" fill="black"/>
<path d="M38.5939 18.3686C38.0148 19.0765 37.2265 19.6556 35.7947 19.4304C35.7947 19.4304 35.3925 19.0604 34.9582 19.8969C34.9421 17.6769 36.1647 15.505 38.3205 16.2451C38.3205 16.2451 39.704 16.969 38.5939 18.3686Z" fill="black"/>
<path d="M30.1158 19.6556C29.601 18.6743 29.1345 19.1086 29.1345 19.1086C27.204 19.4304 26.2709 18.433 25.547 17.4516C25.1609 15.6498 26.5444 15.3281 26.8501 15.2637C26.8661 15.2637 26.8822 15.2637 26.8983 15.2637C28.0244 15.1672 28.7645 15.7303 28.7645 15.7303C29.8423 16.2451 30.0836 18.9156 30.1158 19.6556Z" fill="black"/>
<path d="M32.8988 18.449C33.494 18.8029 33.8801 19.366 34.1215 20.0095C34.3467 20.653 34.3467 21.3608 34.1858 22.0043C34.1054 22.3261 33.9606 22.6318 33.8319 22.9374C33.7675 23.0822 33.671 23.227 33.5906 23.3718C33.5101 23.5166 33.4297 23.6614 33.3492 23.7901C33.1562 24.0475 32.9953 24.337 32.8023 24.5944C32.5931 24.8518 32.4001 25.1092 32.207 25.3827L31.8531 25.8332L32.0301 25.2862C32.1427 24.9484 32.1909 24.5944 32.2231 24.2405C32.2392 23.8866 32.207 23.5327 32.1266 23.1948C32.0462 22.857 31.9175 22.5191 31.7405 22.2296C31.5796 21.9239 31.3544 21.6504 31.1131 21.393L30.9844 21.2482L31.1292 21.1356C31.5474 20.8139 31.9657 20.4278 32.2875 19.9934C32.4483 19.7682 32.5931 19.543 32.7057 19.2856C32.8184 19.0282 32.8666 18.7547 32.8988 18.449ZM32.9149 18.4812C32.9631 18.7547 32.931 19.0282 32.8505 19.3177C32.7701 19.5912 32.6414 19.8647 32.4966 20.106C32.3518 20.3473 32.1588 20.5726 31.9657 20.7978C31.7727 21.0069 31.5796 21.2161 31.3383 21.393L31.3544 21.1356C31.6118 21.4091 31.8692 21.6987 32.0462 22.0526C32.2392 22.3904 32.3679 22.7605 32.4323 23.1305C32.5127 23.5005 32.5288 23.8866 32.4805 24.2727C32.4323 24.6588 32.3357 25.0127 32.1909 25.3666L32.0301 25.2701C32.2392 25.0288 32.4644 24.7875 32.6736 24.5462C32.8666 24.2888 33.0436 24.0153 33.2205 23.7418C33.5262 23.1787 33.7836 22.5674 33.8801 21.9561C34.0088 21.3448 34.0249 20.7013 33.848 20.106C33.7675 19.8004 33.6388 19.5108 33.4779 19.2373C33.3975 19.1086 33.301 18.9638 33.2045 18.8512C33.1401 18.7064 32.9953 18.5938 32.9149 18.4812Z" fill="black"/>
</svg>
